# xmcd
#
# Track frame offsets:
#	150
#	22093
#	39172
#	66496
#	78367
#	109769
#	135680
#	162270
#
# Disc length: 2553 seconds
# Revision: 0
# Processed by: cddbd v1.5.2PL0 Copyright (c) Steve Scherf et al.
# Submitted via: dBpowerAMP V12.0
#
DISCID=6509f708
DTITLE=John Inmon - John Inmon, Songs For Heavy Traffic
DYEAR=2010
DGENRE=Country Swing
TTITLE0=Jaya Jaya
TTITLE1=Suki Yaki
TTITLE2=Cast Your Fate To The Wind
TTITLE3=Prelude
TTITLE4=The Road Less Traveled
TTITLE5=In My Life
TTITLE6=The Blue Door
TTITLE7=This Is My Lucky Day
EXTD=
EXTT0=
EXTT1=
EXTT2=
EXTT3=
EXTT4=
EXTT5=
EXTT6=
EXTT7=
PLAYORDER=
